<svg xmlns="http://www.w3.org/2000/svg" viewBox="0 0 110 100">
  <g stroke="#14301b" stroke-width="5" stroke-linejoin="round">
    <path fill="#277e38" d="M51 92V58h11v34z"/>
    <path fill="#3fa44a" d="M56 78C36 76 27 68 25 56c16 0 27 7 33 18zM58 78c14-9 26-8 34 1-9 11-21 14-33 7z"/>
    <circle cx="39" cy="39" r="23" fill="#429e43"/>
    <circle cx="72" cy="39" r="23" fill="#367f39"/>
    <circle cx="33" cy="37" r="3" fill="#14301b" stroke="none"/>
    <circle cx="65" cy="37" r="3" fill="#14301b" stroke="none"/>
    <path d="M31 49c5-3 10-3 15 0M64 49c5-3 10-3 15 0" fill="none" stroke-linecap="round"/>
  </g>
</svg>
