<svg xmlns="http://www.w3.org/2000/svg" viewBox="0 0 100 100">
  <g stroke="#173743" stroke-width="5" stroke-linejoin="round">
    <path fill="#48a7b7" d="M46 91V58h11v33z"/>
    <path fill="#6dd2d7" d="M51 77C32 76 24 66 23 55c15 0 25 6 30 18zM54 78c14-10 24-8 31 1-9 10-19 12-30 6z"/>
    <circle cx="48" cy="40" r="25" fill="#76d9e5"/>
    <path fill="#c9f8ff" d="m23 19 8 5-2 10-8-6-8 6 2-10-8-5 10-1 3-10 3 10z"/>
    <circle cx="41" cy="39" r="3" fill="#173743" stroke="none"/>
    <circle cx="57" cy="39" r="3" fill="#173743" stroke="none"/>
    <path d="M42 50c5 3 10 3 15 0" fill="none" stroke-linecap="round"/>
    <path d="m70 16 4 7 8 1-6 6 2 8-8-4-7 4 1-8-6-6 8-1z" fill="#dffcff"/>
  </g>
</svg>
