<svg xmlns="http://www.w3.org/2000/svg" viewBox="0 0 800 800">
  <rect width="800" height="800" fill="#80d1e8"/>
  <path fill="#a86b45" stroke="#533820" stroke-width="12" d="M0 105h190v590H0z"/>
  <path fill="#55a83d" d="M180 0h620v245H180zM180 565h620v235H180z"/>
  <path fill="#45b9d3" stroke="#e8e0c7" stroke-width="24" d="M195 250h605v310H195z"/>
  <path d="M220 310c80-40 140 40 220 0s140 40 220 0 100 15 140 0M220 420c80-40 140 40 220 0s140 40 220 0 100 15 140 0" fill="none" stroke="#a6ecf3" stroke-width="12" opacity=".7"/>
  <path fill="#796047" d="M180 0h620v45H180z"/>
  <path d="M260 0v70M390 0v70M520 0v70M650 0v70M780 0v70" stroke="#b89871" stroke-width="18"/>
</svg>
