<svg xmlns="http://www.w3.org/2000/svg" viewBox="0 0 96 96">
  <g stroke="#17361d" stroke-width="5" stroke-linejoin="round">
    <path fill="#3f9d3e" d="M46 84V48h10v36z"/>
    <path fill="#57b84f" d="M49 70C32 69 23 61 20 50c14-2 25 4 31 15z"/>
    <path fill="#75cf55" d="M53 69c15-7 24-5 30 4-9 10-20 12-31 2z"/>
    <circle cx="47" cy="36" r="24" fill="#65c94d"/>
    <path fill="#82df5c" d="M26 31c-11-6-13-15-8-24 12 1 19 8 20 19z"/>
    <circle cx="40" cy="34" r="3" fill="#17361d" stroke="none"/>
    <circle cx="55" cy="34" r="3" fill="#17361d" stroke="none"/>
    <path d="M40 45c5 4 11 4 16 0" fill="none" stroke-linecap="round"/>
  </g>
</svg>
