<svg xmlns="http://www.w3.org/2000/svg" viewBox="0 0 80 160">
  <g stroke="#17361d" stroke-width="5" stroke-linejoin="round">
    <path fill="#48983d" d="M35 145V64h10v81z"/>
    <path fill="#61bb49" d="M38 115C18 111 10 99 11 85c17 1 27 10 31 25z"/>
    <path fill="#75cf55" d="M42 93c12-15 24-18 36-10-4 17-16 25-34 22z"/>
    <g fill="#f0b92c">
      <ellipse cx="40" cy="22" rx="12" ry="20"/>
      <ellipse cx="40" cy="58" rx="12" ry="20"/>
      <ellipse cx="22" cy="40" rx="20" ry="12"/>
      <ellipse cx="58" cy="40" rx="20" ry="12"/>
    </g>
    <circle cx="40" cy="40" r="19" fill="#8d5a27"/>
    <circle cx="34" cy="37" r="2.5" fill="#17361d" stroke="none"/>
    <circle cx="46" cy="37" r="2.5" fill="#17361d" stroke="none"/>
    <path d="M34 47c4 3 8 3 12 0" fill="none" stroke-linecap="round"/>
  </g>
</svg>
