<svg xmlns="http://www.w3.org/2000/svg" viewBox="0 0 160 80">
  <g stroke="#17361d" stroke-width="5" stroke-linejoin="round">
    <path fill="#3f8e39" d="M12 65c4-31 24-45 48-35 16-23 45-20 54 4 23-6 36 7 36 31z"/>
    <path fill="#6ac84d" d="M24 43 13 22c17-2 28 6 34 21M77 34 72 9c18 4 26 13 27 29M119 42l21-18c5 15 1 26-13 34"/>
    <circle cx="61" cy="52" r="3" fill="#17361d" stroke="none"/>
    <circle cx="88" cy="52" r="3" fill="#17361d" stroke="none"/>
    <path d="M68 61c5 3 9 3 14 0" fill="none" stroke-linecap="round"/>
  </g>
</svg>
