<svg xmlns="http://www.w3.org/2000/svg" viewBox="0 0 100 100">
  <g stroke="#20251f" stroke-width="5" stroke-linejoin="round">
    <path fill="#aeb8bd" d="M23 25 30 5h42l7 20-8 8H31z"/>
    <path fill="#e7edef" d="M31 8h33l-5 8H29z"/>
    <path fill="#7d898f" d="M18 24h64v10H18z"/>
    <circle cx="50" cy="52" r="27" fill="#e4a367"/>
    <circle cx="40" cy="49" r="3" fill="#20251f" stroke="none"/>
    <circle cx="60" cy="49" r="3" fill="#20251f" stroke="none"/>
    <path fill="#7a432b" d="M31 62c10-7 28-7 38 0-3 21-10 29-19 29s-16-8-19-29z"/>
    <path fill="#f7dfbb" d="M42 63c5 3 11 3 16 0-1 8-4 11-8 11s-7-3-8-11z"/>
    <path fill="#b85f37" d="M35 59c5-8 25-8 30 0-10-2-20-2-30 0z"/>
  </g>
</svg>
